<?xml version="1.0" encoding="UTF-8"?>
<!DOCTYPE svg PUBLIC "-//W3C//DTD SVG 1.1//EN" "http://www.w3.org/Graphics/SVG/1.1/DTD/svg11.dtd">
<svg xmlns="http://www.w3.org/2000/svg" version="1.1" width="1000px" height="1000px" style="shape-rendering:geometricPrecision; text-rendering:geometricPrecision; image-rendering:optimizeQuality; fill-rule:evenodd; clip-rule:evenodd" xmlns:xlink="http://www.w3.org/1999/xlink">
<g><path style="opacity:1" fill="#fefefe" d="M -0.5,-0.5 C 332.833,-0.5 666.167,-0.5 999.5,-0.5C 999.5,332.833 999.5,666.167 999.5,999.5C 666.167,999.5 332.833,999.5 -0.5,999.5C -0.5,666.167 -0.5,332.833 -0.5,-0.5 Z"/></g>
<g><path style="opacity:1" fill="#7d7d81" d="M 890.5,178.5 C 847.833,178.5 805.167,178.5 762.5,178.5C 762.5,179.833 762.5,181.167 762.5,182.5C 761.549,181.081 761.216,179.415 761.5,177.5C 804.67,177.168 847.67,177.501 890.5,178.5 Z"/></g>
<g><path style="opacity:1" fill="#030203" d="M 349.5,579.5 C 350.793,580.645 351.959,580.311 353,578.5C 353.49,579.793 353.657,581.127 353.5,582.5C 347.313,600.557 340.813,618.557 334,636.5C 332.739,641.986 330.406,642.652 327,638.5C 261.213,497.927 195.713,357.261 130.5,216.5C 130.44,215.957 130.107,215.624 129.5,215.5C 128.502,223.807 128.169,232.14 128.5,240.5C 127.691,242.292 127.191,244.292 127,246.5C 126.667,257.833 126.333,269.167 126,280.5C 125.667,276.167 125.333,271.833 125,267.5C 124.829,275.344 124.329,283.011 123.5,290.5C 123.878,267.705 122.378,245.039 119,222.5C 117.323,209.644 111.823,198.811 102.5,190C 95.1347,185.526 87.1347,183.193 78.5,183C 77.6198,181.644 77.2865,180.144 77.5,178.5C 104.508,178.167 131.508,178.5 158.5,179.5C 222.216,313.076 285.883,446.409 349.5,579.5 Z"/></g>
<g><path style="opacity:1" fill="#040303" d="M 497.5,580.5 C 498.5,453.334 498.833,326.001 498.5,198.5C 499.434,197.432 499.768,196.099 499.5,194.5C 497.833,194.5 496.167,194.5 494.5,194.5C 494.5,193.5 494.5,192.5 494.5,191.5C 495.628,187.45 496.961,183.45 498.5,179.5C 528.159,178.5 557.826,178.167 587.5,178.5C 587.714,180.144 587.38,181.644 586.5,183C 567.594,182.923 555.094,191.757 549,209.5C 544.894,225.544 542.561,241.877 542,258.5C 541.333,371.5 541.333,484.5 542,597.5C 542.503,614.52 545.17,631.186 550,647.5C 556.448,664.764 568.948,673.097 587.5,672.5C 587.714,674.144 587.38,675.644 586.5,677C 541.835,677.5 497.168,677.667 452.5,677.5C 452.5,675.833 452.5,674.167 452.5,672.5C 468.034,673.18 479.534,666.846 487,653.5C 493.299,638.542 496.632,622.875 497,606.5C 497.5,597.84 497.666,589.173 497.5,580.5 Z"/></g>
<g><path style="opacity:1" fill="#030303" d="M 890.5,178.5 C 892.5,178.5 894.5,178.5 896.5,178.5C 896.5,179.833 896.5,181.167 896.5,182.5C 875.153,183.009 861.986,193.676 857,214.5C 853.364,232.301 851.364,250.301 851,268.5C 850.667,398.167 850.333,527.833 850,657.5C 846.458,698.08 829.958,732.247 800.5,760C 777.874,778.152 752.207,784.985 723.5,780.5C 723.286,778.856 723.62,777.356 724.5,776C 748.815,777.424 767.982,768.258 782,748.5C 798.168,722.262 806.501,693.595 807,662.5C 807.982,522.15 807.649,381.817 806,241.5C 805.076,231.701 803.41,222.035 801,212.5C 795.502,193.009 782.668,183.009 762.5,182.5C 762.5,181.167 762.5,179.833 762.5,178.5C 805.167,178.5 847.833,178.5 890.5,178.5 Z"/></g>
<g><path style="opacity:1" fill="#141212" d="M 494.5,191.5 C 494.5,192.5 494.5,193.5 494.5,194.5C 496.167,194.5 497.833,194.5 499.5,194.5C 499.768,196.099 499.434,197.432 498.5,198.5C 498.649,197.448 498.483,196.448 498,195.5C 497.209,196.745 496.709,198.078 496.5,199.5C 448.601,327.212 400.934,454.878 353.5,582.5C 353.657,581.127 353.49,579.793 353,578.5C 351.959,580.311 350.793,580.645 349.5,579.5C 397.802,450.273 446.135,320.94 494.5,191.5 Z"/></g>
<g><path style="opacity:1" fill="#201914" d="M 123.5,542.5 C 123.5,464.5 123.5,386.5 123.5,308.5C 124.314,306.369 124.814,304.036 125,301.5C 125.667,378.5 125.667,455.5 125,532.5C 124.821,536.025 124.321,539.359 123.5,542.5 Z"/></g>
<g><path style="opacity:1" fill="#b0b5ba" d="M 130.5,216.5 C 129.501,318.332 129.167,420.332 129.5,522.5C 128.501,428.668 128.167,334.668 128.5,240.5C 128.169,232.14 128.502,223.807 129.5,215.5C 130.107,215.624 130.44,215.957 130.5,216.5 Z"/></g>
<g><path style="opacity:1" fill="#181516" d="M 128.5,240.5 C 128.167,334.668 128.501,428.668 129.5,522.5C 129.5,525.5 129.5,528.5 129.5,531.5C 128.683,533.969 128.183,536.635 128,539.5C 127.808,537.423 127.308,535.423 126.5,533.5C 125.669,539.807 125.169,546.141 125,552.5C 124.617,553.056 124.117,553.389 123.5,553.5C 123.5,549.833 123.5,546.167 123.5,542.5C 124.321,539.359 124.821,536.025 125,532.5C 125.667,455.5 125.667,378.5 125,301.5C 124.814,304.036 124.314,306.369 123.5,308.5C 123.5,302.5 123.5,296.5 123.5,290.5C 124.329,283.011 124.829,275.344 125,267.5C 125.333,271.833 125.667,276.167 126,280.5C 126.333,269.167 126.667,257.833 127,246.5C 127.191,244.292 127.691,242.292 128.5,240.5 Z"/></g>
<g><path style="opacity:1" fill="#bec2b4" d="M 498.5,198.5 C 498.833,326.001 498.5,453.334 497.5,580.5C 497.833,453.332 497.5,326.332 496.5,199.5C 496.709,198.078 497.209,196.745 498,195.5C 498.483,196.448 498.649,197.448 498.5,198.5 Z"/></g>
<g><path style="opacity:1" fill="#070606" d="M 129.5,531.5 C 130.846,553.756 134.013,575.756 139,597.5C 143.892,616.944 152.226,634.611 164,650.5C 176.489,664.994 192.322,672.327 211.5,672.5C 211.5,674.167 211.5,675.833 211.5,677.5C 166.833,677.5 122.167,677.5 77.5,677.5C 77.5,675.5 77.5,673.5 77.5,671.5C 97.3421,672.491 110.175,663.491 116,644.5C 118.981,631.321 120.981,617.988 122,604.5C 122.952,587.512 123.452,570.512 123.5,553.5C 124.117,553.389 124.617,553.056 125,552.5C 125.169,546.141 125.669,539.807 126.5,533.5C 127.308,535.423 127.808,537.423 128,539.5C 128.183,536.635 128.683,533.969 129.5,531.5 Z"/></g>
</svg>
